<svg xmlns="http://www.w3.org/2000/svg" version="1.1" xmlns:xlink="http://www.w3.org/1999/xlink" xmlns:svgjs="http://svgjs.dev/svgjs" width="1000" height="623" viewBox="0 0 1000 623"><g transform="matrix(1,0,0,1,-0.6060606060606233,0.2522267206477409)"><svg viewBox="0 0 396 247" data-background-color="#010536" preserveAspectRatio="xMidYMid meet" height="623" width="1000" xmlns="http://www.w3.org/2000/svg" xmlns:xlink="http://www.w3.org/1999/xlink"><g id="tight-bounds" transform="matrix(1,0,0,1,0.2400000000000091,-0.09999999999999432)"><svg viewBox="0 0 395.52 247.2" height="247.2" width="395.52"><g><svg></svg></g><g><svg viewBox="0 0 395.52 247.2" height="247.2" width="395.52"><g transform="matrix(1,0,0,1,75.54432,97.26829159789531)"><svg viewBox="0 0 244.43135999999998 52.66341680420936" height="52.66341680420936" width="244.43135999999998"><g><svg viewBox="0 0 244.43135999999998 52.66341680420936" height="52.66341680420936" width="244.43135999999998"><g><svg viewBox="0 0 244.43135999999998 52.66341680420936" height="52.66341680420936" width="244.43135999999998"><g><svg viewBox="0 0 244.43135999999998 52.66341680420936" height="52.66341680420936" width="244.43135999999998"><g id="textblocktransform"><svg viewBox="0 0 244.43135999999998 52.66341680420936" height="52.66341680420936" width="244.43135999999998" id="textblock"><g><svg viewBox="0 0 244.43135999999998 52.66341680420936" height="52.66341680420936" width="244.43135999999998"><g transform="matrix(1,0,0,1,0,0)"><svg width="244.43135999999998" viewBox="2.509999990463257 -37.5 176.3000030517578 37.9900016784668" height="52.66341680420936" data-palette-color="#fbfbf8"><path d="M9.77-26.42L9.77 0 2.83 0 2.83-26.42 9.77-26.42ZM2.51-33.25L2.51-33.25Q2.51-34.86 3.54-35.89 4.57-36.91 6.27-36.91 7.98-36.91 9.01-35.89 10.03-34.86 10.03-33.25L10.03-33.25Q10.03-31.67 9.02-30.62 8.01-29.57 6.27-29.57 4.54-29.57 3.53-30.62 2.51-31.67 2.51-33.25ZM22.36-37.5L22.36 0 15.43 0 15.43-37.5 22.36-37.5ZM34.96-26.42L34.96 0 28.02 0 28.02-26.42 34.96-26.42ZM27.7-33.25L27.7-33.25Q27.7-34.86 28.73-35.89 29.76-36.91 31.46-36.91 33.17-36.91 34.2-35.89 35.22-34.86 35.22-33.25L35.22-33.25Q35.22-31.67 34.21-30.62 33.2-29.57 31.46-29.57 29.73-29.57 28.72-30.62 27.7-31.67 27.7-33.25ZM59.81 0L52.85 0Q52.56-0.61 52.26-2.05L52.26-2.05Q50.41 0.49 47.23 0.49L47.23 0.49Q43.91 0.49 41.73-1.71 39.54-3.91 39.54-7.4L39.54-7.4Q39.54-11.55 42.19-13.82 44.84-16.09 49.82-16.14L49.82-16.14 51.92-16.14 51.92-18.26Q51.92-20.04 51.31-20.78 50.7-21.51 49.53-21.51L49.53-21.51Q46.94-21.51 46.94-18.48L46.94-18.48 40.03-18.48Q40.03-22.14 42.78-24.52 45.52-26.9 49.72-26.9L49.72-26.9Q54.07-26.9 56.45-24.65 58.83-22.39 58.83-18.19L58.83-18.19 58.83-5.76Q58.88-2.34 59.81-0.42L59.81-0.42 59.81 0ZM48.77-4.93L48.77-4.93Q49.92-4.93 50.72-5.4 51.53-5.86 51.92-6.49L51.92-6.49 51.92-11.99 50.26-11.99Q48.5-11.99 47.49-10.86 46.48-9.74 46.48-7.86L46.48-7.86Q46.48-4.93 48.77-4.93ZM73.38-5.25L73.38-5.25Q76.38-5.25 76.43-9.16L76.43-9.16 82.92-9.16Q82.88-4.83 80.26-2.17 77.65 0.49 73.53 0.49L73.53 0.49Q68.42 0.49 65.74-2.69 63.05-5.86 63-12.04L63-12.04 63-14.14Q63-20.36 65.65-23.63 68.3-26.9 73.48-26.9L73.48-26.9Q77.85-26.9 80.36-24.21 82.88-21.51 82.92-16.55L82.92-16.55 76.43-16.55Q76.41-18.77 75.7-19.97 74.99-21.17 73.35-21.17L73.35-21.17Q71.55-21.17 70.77-19.89 69.99-18.6 69.94-14.92L69.94-14.92 69.94-12.23Q69.94-9.01 70.25-7.73 70.57-6.45 71.3-5.85 72.04-5.25 73.38-5.25ZM86.02-12.38L86.02-14.06Q86.02-20.07 88.85-23.49 91.69-26.9 96.69-26.9L96.69-26.9Q101.75-26.9 104.58-23.49 107.41-20.07 107.41-14.01L107.41-14.01 107.41-12.33Q107.41-6.3 104.6-2.91 101.79 0.49 96.74 0.49L96.74 0.49Q91.66 0.49 88.84-2.92 86.02-6.32 86.02-12.38L86.02-12.38ZM92.96-14.06L92.96-12.33Q92.96-5.25 96.74-5.25L96.74-5.25Q100.23-5.25 100.5-11.16L100.5-11.16 100.52-14.06Q100.52-17.68 99.52-19.42 98.52-21.17 96.69-21.17L96.69-21.17Q94.93-21.17 93.95-19.42 92.96-17.68 92.96-14.06L92.96-14.06ZM110.78-12.01L110.78-14.01Q110.78-20.51 112.97-23.71 115.17-26.9 119.37-26.9L119.37-26.9Q122.42-26.9 124.45-24.27L124.45-24.27 124.45-37.5 131.41-37.5 131.41 0 125.13 0 124.81-2.69Q122.69 0.49 119.35 0.49L119.35 0.49Q115.19 0.49 113.01-2.69 110.82-5.86 110.78-12.01L110.78-12.01ZM117.71-14.11L117.71-12.28Q117.71-8.37 118.54-6.82 119.37-5.27 121.35-5.27L121.35-5.27Q123.4-5.27 124.45-7.1L124.45-7.1 124.45-19.17Q123.42-21.12 121.37-21.12L121.37-21.12Q119.47-21.12 118.59-19.58 117.71-18.04 117.71-14.11L117.71-14.11ZM147.15 0.49L147.15 0.49Q141.83 0.49 138.85-2.69 135.87-5.86 135.87-11.77L135.87-11.77 135.87-13.87Q135.87-20.12 138.61-23.51 141.34-26.9 146.44-26.9L146.44-26.9Q151.42-26.9 153.94-23.72 156.45-20.53 156.5-14.28L156.5-14.28 156.5-10.89 142.76-10.89Q142.9-7.96 144.05-6.6 145.2-5.25 147.59-5.25L147.59-5.25Q151.06-5.25 153.38-7.62L153.38-7.62 156.09-3.44Q154.82-1.68 152.4-0.6 149.98 0.49 147.15 0.49ZM142.8-15.72L142.8-15.72 149.71-15.72 149.71-16.36Q149.67-18.73 148.93-19.95 148.2-21.17 146.39-21.17 144.59-21.17 143.77-19.87 142.95-18.58 142.8-15.72ZM172.1-7.08L172.1-7.08Q172.1-7.96 171.26-8.7 170.41-9.45 167.51-10.72L167.51-10.72Q163.24-12.45 161.64-14.31 160.04-16.16 160.04-18.92L160.04-18.92Q160.04-22.39 162.54-24.65 165.04-26.9 169.17-26.9L169.17-26.9Q173.52-26.9 176.13-24.66 178.74-22.41 178.74-18.63L178.74-18.63 171.83-18.63Q171.83-21.85 169.15-21.85L169.15-21.85Q168.05-21.85 167.34-21.17 166.63-20.48 166.63-19.26L166.63-19.26Q166.63-18.38 167.41-17.71 168.19-17.04 171.1-15.8L171.1-15.8Q175.32-14.23 177.07-12.32 178.81-10.4 178.81-7.35L178.81-7.35Q178.81-3.81 176.15-1.66 173.49 0.49 169.17 0.49L169.17 0.49Q166.26 0.49 164.04-0.65 161.82-1.78 160.56-3.81 159.31-5.83 159.31-8.18L159.31-8.18 165.87-8.18Q165.92-6.37 166.72-5.47 167.51-4.57 169.32-4.57L169.32-4.57Q172.1-4.57 172.1-7.08Z" opacity="1" transform="matrix(1,0,0,1,0,0)" fill="#ffffff" class="undefined-text-0" data-fill-palette-color="primary" id="text-0"></path></svg></g></svg></g></svg></g></svg></g></svg></g></svg></g></svg></g><path d="M193.16 91.268L193.16 31.222 8.405 31.222 8.405 215.978 193.16 215.978 193.16 155.932 188.411 155.932 188.411 211.228 13.154 211.228 13.154 35.972 188.411 35.972 188.411 91.268Z" fill="#ffffff" stroke="transparent" data-fill-palette-color="primary"></path></svg></g><defs></defs></svg><rect width="395.52" height="247.2" fill="none" stroke="none" visibility="hidden"></rect></g></svg></g></svg>