<?xml version="1.0" standalone="no"?>
<!DOCTYPE svg PUBLIC "-//W3C//DTD SVG 20010904//EN"
 "http://www.w3.org/TR/2001/REC-SVG-20010904/DTD/svg10.dtd">
<svg version="1.0" xmlns="http://www.w3.org/2000/svg"
 width="500.000000pt" height="500.000000pt" viewBox="0 0 500.000000 500.000000"
 preserveAspectRatio="xMidYMid meet">

<g transform="translate(0.000000,500.000000) scale(0.100000,-0.100000)"
fill="#000000" stroke="none">
<path d="M0 2500 l0 -2500 2500 0 2500 0 0 2500 0 2500 -2500 0 -2500 0 0
-2500z m3386 769 c-3 -17 -6 -89 -6 -160 0 -122 -1 -129 -20 -129 -19 0 -20 7
-20 140 l0 140 -840 0 -840 0 0 -760 0 -760 840 0 840 0 0 190 c0 163 2 191
15 197 9 3 18 4 20 2 2 -2 5 -100 7 -217 l3 -212 -885 0 -885 0 0 800 0 800
889 0 889 0 -7 -31z"/>
</g>
</svg>
